<?xml version="1.0" encoding="iso-8859-1"?>
<!-- Generator: Adobe Illustrator 19.0.0, SVG Export Plug-In . SVG Version: 6.00 Build 0)  -->
<!-- License: CC0. Made by SVG Repo: https://www.svgrepo.com/svg/206174/seeds -->
<svg version="1.1" id="Layer_1" xmlns="http://www.w3.org/2000/svg" xmlns:xlink="http://www.w3.org/1999/xlink" x="0px" y="0px"
	 viewBox="0 0 511.504 511.504" style="enable-background:new 0 0 511.504 511.504;" xml:space="preserve">
<g>
	<path style="fill:#ECE8D8;" d="M437.292,0.55l-46.124,18.026c-20.551,5.252-41.649,7.91-62.835,7.91h-145.17
		c-21.177,0-42.284-2.657-62.835-7.91L74.213,0.55C60.539-2.946,48.754,10.86,53.989,24.234l25.212,64.044
		c-23.049,103.989-23.34,216.647,0,335.448l-20.913,63.559c-5.005,12.773,5.588,26.236,18.873,23.967l52.206-8.889
		c7.795-1.333,15.651-2.295,23.111-3.637c15.466-2.79,31.082-4.379,46.777-4.379H312.24c15.695,0,31.32,1.589,46.777,4.379
		c7.468,1.342,15.316,2.304,23.119,3.637l52.198,8.889c13.285,2.269,23.879-11.193,18.882-23.967l-20.913-63.559
		c23.755-122.915,23.42-235.185,0-335.448l25.212-64.044C462.75,10.86,450.957-2.946,437.292,0.55"/>
	<g>
		<path style="fill:#C9C3A7;" d="M299.888,423.726h-88.276c-4.873,0-8.828-3.946-8.828-8.828c0-4.882,3.955-8.828,8.828-8.828
			h88.276c4.873,0,8.828,3.946,8.828,8.828C308.716,419.78,304.761,423.726,299.888,423.726"/>
		<path style="fill:#C9C3A7;" d="M317.544,459.036H193.957c-4.873,0-8.828-3.946-8.828-8.828c0-4.882,3.955-8.828,8.828-8.828
			h123.586c4.873,0,8.828,3.946,8.828,8.828C326.371,455.09,322.416,459.036,317.544,459.036"/>
	</g>
	<g>
		<path style="fill:#9E5A23;" d="M345.628,194.208c-53.672,0-97.103,43.432-97.103,97.103
			C302.196,291.312,345.628,247.88,345.628,194.208"/>
		<path style="fill:#9E5A23;" d="M311.919,160.19c-18.82-50.264-74.726-75.705-124.99-56.885
			C205.75,153.57,261.655,179.011,311.919,160.19"/>
		<path style="fill:#9E5A23;" d="M202.297,178.082c-47.66,24.691-66.251,83.226-41.56,130.887
			C208.397,284.278,226.988,225.742,202.297,178.082"/>
	</g>
</g>
</svg>
